<svg width="32" height="32" viewBox="0 0 32 32" fill="none" xmlns="http://www.w3.org/2000/svg">
  <rect width="32" height="32" rx="6" fill="#3B82F6"/>
  <path d="M8 12C8 10.8954 8.89543 10 10 10H14C15.1046 10 16 10.8954 16 12V16C16 17.1046 15.1046 18 14 18H10C8.89543 18 8 17.1046 8 16V12Z" fill="white"/>
  <path d="M18 14C18 12.8954 18.8954 12 20 12H22C23.1046 12 24 12.8954 24 14V20C24 21.1046 23.1046 22 22 22H20C18.8954 22 18 21.1046 18 20V14Z" fill="white"/>
  <path d="M8 20L16 20" stroke="white" stroke-width="2" stroke-linecap="round"/>
  <line x1="12" y1="18" x2="20" y2="14" stroke="white" stroke-width="2" stroke-linecap="round"/>
</svg>
